<svg width="38" height="38" viewBox="0 0 38 38" fill="none" xmlns="http://www.w3.org/2000/svg">
<path d="M19 19C17.2584 19 15.7674 18.3799 14.5271 17.1396C13.2868 15.8993 12.6667 14.4083 12.6667 12.6667C12.6667 10.925 13.2868 9.43403 14.5271 8.19375C15.7674 6.95347 17.2584 6.33333 19 6.33333C20.7417 6.33333 22.2327 6.95347 23.473 8.19375C24.7132 9.43403 25.3334 10.925 25.3334 12.6667C25.3334 14.4083 24.7132 15.8993 23.473 17.1396C22.2327 18.3799 20.7417 19 19 19ZM6.33337 31.6667V27.2333C6.33337 26.3361 6.56428 25.5115 7.02608 24.7594C7.48789 24.0073 8.10143 23.4333 8.86671 23.0375C10.5028 22.2194 12.1653 21.6059 13.8542 21.1969C15.5431 20.7878 17.2584 20.5833 19 20.5833C20.7417 20.5833 22.457 20.7878 24.1459 21.1969C25.8348 21.6059 27.4973 22.2194 29.1334 23.0375C29.8987 23.4333 30.5122 24.0073 30.974 24.7594C31.4358 25.5115 31.6667 26.3361 31.6667 27.2333V31.6667H6.33337ZM9.50004 28.5H28.5V27.2333C28.5 26.9431 28.4275 26.6792 28.2823 26.4417C28.1372 26.2042 27.9459 26.0194 27.7084 25.8875C26.2834 25.175 24.8452 24.6406 23.3938 24.2844C21.9424 23.9281 20.4778 23.75 19 23.75C17.5223 23.75 16.0577 23.9281 14.6063 24.2844C13.1549 24.6406 11.7167 25.175 10.2917 25.8875C10.0542 26.0194 9.86289 26.2042 9.71775 26.4417C9.57261 26.6792 9.50004 26.9431 9.50004 27.2333V28.5ZM19 15.8333C19.8709 15.8333 20.6164 15.5233 21.2365 14.9031C21.8566 14.283 22.1667 13.5375 22.1667 12.6667C22.1667 11.7958 21.8566 11.0503 21.2365 10.4302C20.6164 9.81007 19.8709 9.5 19 9.5C18.1292 9.5 17.3837 9.81007 16.7636 10.4302C16.1434 11.0503 15.8334 11.7958 15.8334 12.6667C15.8334 13.5375 16.1434 14.283 16.7636 14.9031C17.3837 15.5233 18.1292 15.8333 19 15.8333Z" fill="#1D1B20"/>
</svg>
