<svg width="199" height="32" viewBox="0 0 199 32" fill="none" xmlns="http://www.w3.org/2000/svg">
<g clip-path="url(#clip0_2456_1060)">
<path d="M40.4111 16.7178H34.8101V19.4964H40.4111V16.7178Z" fill="#0065EF"/>
<path d="M40.3647 12.55H48.6969V26.4429H51.4743V12.55H59.8528V9.7251H40.3647V12.55Z" fill="#0065EF"/>
<path d="M98.7827 5.55713V9.725H89.0156C85.9604 9.725 83.5071 12.2257 83.5071 15.2822V20.0058V20.8856C83.5071 23.9421 86.0067 26.3965 89.0156 26.4428H101.56V20.8856V5.55713H98.7827ZM98.7827 20.0058V20.8856V23.6642H89.0156C87.488 23.6642 86.2845 22.4139 86.2845 20.9319V15.2822C86.2845 13.7539 87.5343 12.5499 89.0156 12.5499H98.7827V20.0058Z" fill="#0065EF"/>
<path d="M73.8324 9.7251H64.019V12.5037H73.7861C75.3137 12.5037 76.5173 13.754 76.5173 15.2823V15.3286H66.5186C63.5098 15.3286 61.2416 17.6904 61.1953 20.7931V20.8857C61.1953 24.0348 63.5098 26.4429 66.5186 26.4429H79.2946V15.2823C79.3409 12.2721 76.8876 9.77141 73.8787 9.77141C73.8787 9.7251 73.8787 9.7251 73.8324 9.7251ZM76.5635 23.6643H66.5649C65.13 23.6643 64.0653 22.5066 64.0653 20.8857V20.7931C64.0653 19.2186 65.1299 18.1072 66.6112 18.1072H76.6098V23.6643H76.5635Z" fill="#0065EF"/>
<path d="M28.8387 0H3.19411C1.38881 0.0463097 -0.0461772 1.52822 0.000112631 3.3343V28.7583C0.000112631 30.5181 1.38881 32 3.19411 32.0463H28.885C30.644 32 32.079 30.5181 32.0327 28.7583V3.28799C32.0327 1.52822 30.644 0.0463097 28.8387 0ZM26.4316 20.2373C26.4316 23.6643 23.6542 26.4428 20.2288 26.4428H11.804C8.37857 26.4428 5.60118 23.6643 5.55489 20.191V5.55716H8.33228V20.2373C8.33228 22.136 9.85985 23.6643 11.7577 23.6643H20.2288C22.1267 23.6643 23.6542 22.136 23.6542 20.2373V9.72504H26.4316V20.2373Z" fill="#0065EF"/>
<path d="M111.698 10.8364C111.373 10.6975 111.049 10.6049 110.725 10.6512C110.216 10.6049 109.707 10.7901 109.337 11.1606C108.966 11.5774 108.781 12.1331 108.828 12.7351V14.0781C108.781 14.6338 108.966 15.1896 109.337 15.6527C110.124 16.301 111.235 16.301 112.068 15.699C112.392 15.3748 112.577 14.958 112.577 14.4949V14.4023H111.929V14.4949C111.929 14.7728 111.836 15.0506 111.605 15.2822C111.373 15.4674 111.049 15.6063 110.725 15.56C109.892 15.56 109.476 15.0969 109.476 14.1244V12.7351C109.429 12.3184 109.568 11.9016 109.8 11.5774C110.031 11.3459 110.401 11.2069 110.725 11.2532C111.049 11.2532 111.373 11.3459 111.605 11.5311C111.836 11.7163 111.929 11.9942 111.929 12.3184V12.3647H112.577V12.3184C112.577 11.9942 112.484 11.7163 112.346 11.4385C112.207 11.1606 111.975 10.9754 111.698 10.8364Z" fill="#585857"/>
<path d="M116.836 15.4677H114.197V13.6153H116.465V13.0595H114.197V11.2998H116.836V10.6978H113.549V16.0697H116.836V15.4677Z" fill="#585857"/>
<path d="M121.603 10.6978H120.955V14.8193L118.317 10.6978H117.715V16.0697H118.363V11.9481L121.002 16.0697H121.603V10.6978Z" fill="#585857"/>
<path d="M122.159 11.2998H123.64V16.0697H124.288V11.2998H125.816V10.6978H122.159V11.2998Z" fill="#585857"/>
<path d="M129.658 13.1985C129.889 12.9206 129.982 12.5965 129.982 12.226C130.028 11.8092 129.843 11.3924 129.565 11.1145C129.241 10.8367 128.825 10.6978 128.362 10.6978H126.371V16.0234H127.019V13.7079H128.223L129.426 16.0234H130.167L128.917 13.6616C129.195 13.6153 129.473 13.43 129.658 13.1985ZM126.973 11.2998H128.269C128.547 11.2998 128.825 11.3461 129.01 11.5313C129.38 11.9481 129.38 12.5038 129.01 12.9206C128.778 13.1059 128.547 13.1985 128.269 13.1522H126.973V11.2998Z" fill="#585857"/>
<path d="M132.62 10.6511C132.111 10.6511 131.602 10.79 131.232 11.1605C130.861 11.5773 130.676 12.133 130.723 12.735V14.078C130.676 14.6337 130.861 15.1894 131.232 15.6525C132.019 16.3009 133.176 16.3009 133.963 15.6525C134.333 15.2357 134.518 14.68 134.472 14.078V12.6887C134.518 12.133 134.333 11.5773 133.963 11.1142C133.593 10.79 133.13 10.6048 132.62 10.6511ZM132.62 15.5136C132.296 15.5599 131.926 15.421 131.695 15.1894C131.463 14.8653 131.371 14.4948 131.371 14.1243V12.735C131.324 12.3182 131.463 11.9478 131.695 11.5773C131.926 11.3457 132.296 11.2068 132.62 11.2068C133.454 11.2068 133.824 11.6699 133.824 12.6887V14.078C133.824 15.0505 133.454 15.5136 132.62 15.5136Z" fill="#585857"/>
<path d="M140.536 15.2361C140.675 14.9582 140.767 14.6341 140.767 14.3099V10.6978H140.119V14.2173C140.119 14.5415 140.027 14.9119 139.795 15.1435C139.564 15.375 139.24 15.514 138.916 15.4677C138.592 15.4677 138.268 15.375 138.036 15.1435C137.805 14.8656 137.712 14.5415 137.712 14.2173V10.6978H137.064V14.3099C137.064 14.6341 137.157 14.9582 137.296 15.2361C137.435 15.514 137.666 15.7455 137.944 15.8844C138.545 16.2086 139.24 16.2086 139.842 15.8844C140.166 15.7455 140.397 15.514 140.536 15.2361Z" fill="#585857"/>
<path d="M142.526 11.9481L145.165 16.0697H145.813V10.6978H145.165V14.8193L142.526 10.6978H141.878V16.0697H142.526V11.9481Z" fill="#585857"/>
<path d="M147.618 10.6978H146.97V16.0697H147.618V10.6978Z" fill="#585857"/>
<path d="M151.507 10.6978L150.164 14.9582L148.868 10.6978H148.174L149.933 16.0697H150.442L152.201 10.6978H151.507Z" fill="#585857"/>
<path d="M152.71 16.0697H155.997V15.4677H153.358V13.6153H155.58V13.0595H153.358V11.2998H155.997V10.6978H152.71V16.0697Z" fill="#585857"/>
<path d="M157.478 13.7538H158.682L159.885 16.0693H160.626L159.376 13.7075C160.07 13.5685 160.533 12.9665 160.487 12.2719C160.533 11.8551 160.348 11.4383 160.024 11.1604C159.7 10.8826 159.283 10.7437 158.821 10.7437H156.83V16.0693H157.478V13.7538ZM157.478 11.2994H158.774C159.052 11.2994 159.33 11.3457 159.561 11.5309C159.885 11.9477 159.885 12.5034 159.561 12.9202C159.33 13.1054 159.052 13.1981 158.821 13.1518H157.524L157.478 11.2994Z" fill="#585857"/>
<path d="M162.802 16.1159C163.264 16.1622 163.774 16.0233 164.144 15.6991C164.468 15.4213 164.653 15.0045 164.653 14.5414C164.653 14.1709 164.561 13.8004 164.283 13.5226C164.005 13.2447 163.635 13.1058 163.264 13.0595L162.663 12.9205C162.431 12.8742 162.153 12.7816 161.968 12.6427C161.829 12.5038 161.737 12.2722 161.737 12.087C161.737 11.8554 161.829 11.5776 162.015 11.4386C162.246 11.2534 162.524 11.1608 162.848 11.2071C163.357 11.1145 163.82 11.4386 163.912 11.948C163.912 11.9943 163.912 12.087 163.912 12.1333V12.1796H164.561V12.1333C164.561 11.7165 164.329 11.2997 164.005 11.0218C163.681 10.744 163.264 10.6514 162.848 10.6514C162.385 10.6514 161.968 10.7903 161.598 11.0682C161.274 11.346 161.089 11.7628 161.135 12.1796C161.135 12.5501 161.228 12.8742 161.505 13.1521C161.783 13.3836 162.153 13.5689 162.524 13.6152L163.126 13.7078C163.403 13.7541 163.635 13.8467 163.82 13.9857C163.959 14.1709 164.051 14.3561 164.051 14.5877C164.051 14.8655 163.959 15.0971 163.774 15.2823C163.496 15.4676 163.218 15.5602 162.894 15.5139C162.153 15.5139 161.737 15.1897 161.691 14.4951V14.4488H161.042V14.4951C161.042 14.9582 161.228 15.375 161.552 15.6528C161.876 15.977 162.339 16.1159 162.802 16.1159Z" fill="#585857"/>
<path d="M166.181 10.6978H165.532V16.0697H166.181V10.6978Z" fill="#585857"/>
<path d="M168.264 16.0697H168.912V11.2998H170.393V10.6978H166.782V11.2998H168.264V16.0697Z" fill="#585857"/>
<path d="M171.735 10.6978L169.791 16.0234H170.486L170.949 14.773H173.124L173.587 16.0234H174.281L172.337 10.6978H171.735ZM172.893 14.2173H171.087L171.967 11.6703L172.893 14.2173Z" fill="#585857"/>
<path d="M175.392 13.7542H176.596L177.799 16.0697H178.54L177.29 13.7079C178.123 13.4763 178.586 12.5965 178.308 11.7629C178.216 11.5313 178.123 11.2998 177.938 11.1145C177.614 10.8367 177.197 10.6978 176.735 10.6978H174.744V16.0234H175.392V13.7542ZM175.392 11.2998H176.688C176.966 11.2998 177.244 11.3461 177.429 11.5313C177.799 11.9481 177.799 12.5038 177.429 12.9206C177.197 13.1059 176.966 13.1985 176.688 13.1522H175.392V11.2998Z" fill="#585857"/>
<path d="M179.975 10.6978H179.327V16.0697H179.975V10.6978Z" fill="#585857"/>
<path d="M184.234 15.6062C184.604 15.1894 184.789 14.6337 184.743 14.0317V12.6887C184.789 12.133 184.604 11.5773 184.234 11.1142C183.863 10.79 183.354 10.6048 182.891 10.6511C182.382 10.6511 181.919 10.79 181.503 11.1605C181.132 11.5773 180.947 12.133 180.993 12.735V14.078C180.947 14.6337 181.132 15.1894 181.503 15.6525C182.289 16.3009 183.447 16.3009 184.234 15.6062ZM182.891 11.2531C183.724 11.2531 184.095 11.7162 184.095 12.735V14.1243C184.095 15.0968 183.678 15.5599 182.891 15.5599C182.567 15.6062 182.197 15.4673 181.965 15.2357C181.734 14.9116 181.641 14.5411 181.641 14.1706V12.7813C181.595 12.3645 181.734 11.9941 181.965 11.6236C182.197 11.3457 182.521 11.2068 182.891 11.2531Z" fill="#585857"/>
<path d="M190.529 15.5602C190.899 15.1434 191.084 14.5877 191.038 13.9857V12.7353C191.084 12.1796 190.899 11.6239 190.529 11.1608C190.159 10.8366 189.649 10.6514 189.187 10.6514H187.335V15.977H189.187C189.696 16.0696 190.159 15.8844 190.529 15.5602ZM189.187 15.4676H187.983V11.2997H189.187C189.511 11.2997 189.835 11.3923 190.066 11.6702C190.298 11.9943 190.39 12.4111 190.39 12.8279V14.0783C190.39 15.0045 189.973 15.4676 189.187 15.4676Z" fill="#585857"/>
<path d="M192.01 16.0697H195.297V15.4677H192.658V13.6153H194.927V13.0595H192.658V11.2998H195.297V10.6978H192.01V16.0697Z" fill="#585857"/>
<path d="M108.411 20.4224H109.892V25.1923H110.54V20.4224H112.068V19.8667H108.411V20.4224Z" fill="#585857"/>
<path d="M112.577 25.1923H115.863V24.5903H113.225V22.7842H115.493V22.1822H113.225V20.4224H115.863V19.8667H112.577V25.1923Z" fill="#585857"/>
<path d="M119.474 19.9595C119.196 19.8206 118.826 19.7279 118.502 19.7743C117.993 19.7279 117.484 19.9132 117.113 20.2837C116.743 20.7004 116.558 21.2562 116.604 21.8582V23.2012C116.558 23.7569 116.743 24.3126 117.113 24.7757C117.9 25.424 119.011 25.424 119.798 24.822C120.122 24.5442 120.354 24.0811 120.354 23.618V23.5253H119.706V23.618C119.706 23.8958 119.613 24.1737 119.382 24.4052C119.15 24.5905 118.826 24.7294 118.502 24.6831C117.669 24.6831 117.252 24.22 117.252 23.2475V21.8582C117.206 21.4414 117.345 21.0246 117.576 20.7004C117.808 20.4689 118.178 20.33 118.502 20.3763C118.826 20.3763 119.15 20.4689 119.382 20.6541C119.613 20.8394 119.706 21.1172 119.706 21.4414V21.534H120.354V21.4414C120.354 21.1172 120.261 20.8394 120.122 20.5615C119.983 20.33 119.752 20.0984 119.474 19.9595Z" fill="#585857"/>
<path d="M124.612 23.942L121.974 19.8667H121.326V25.1923H121.974V21.0708L124.612 25.1923H125.26V19.8667H124.612V23.942Z" fill="#585857"/>
<path d="M128.13 19.7744C127.621 19.7744 127.112 19.9133 126.742 20.2838C126.371 20.7006 126.186 21.2563 126.233 21.8584V23.2013C126.186 23.757 126.371 24.3128 126.742 24.7759C127.529 25.4242 128.686 25.4242 129.473 24.7759C129.843 24.3591 130.028 23.8034 129.982 23.2013V21.8584C130.028 21.3026 129.843 20.7469 129.473 20.2838C129.103 19.9597 128.593 19.7744 128.13 19.7744ZM128.13 24.6369C127.806 24.6832 127.436 24.5443 127.205 24.3128C126.973 23.9886 126.881 23.6181 126.881 23.2476V21.8584C126.834 21.4416 126.973 21.0711 127.205 20.7006C127.436 20.4691 127.806 20.3301 128.13 20.3301C128.964 20.3301 129.334 20.7932 129.334 21.812V23.2013C129.334 24.1738 128.917 24.6369 128.13 24.6369Z" fill="#585857"/>
<path d="M131.602 19.8667H130.954V25.1923H134.194V24.5903H131.602V19.8667Z" fill="#585857"/>
<path d="M136.416 19.7744C135.907 19.7744 135.398 19.9133 135.028 20.2838C134.657 20.7006 134.472 21.2563 134.518 21.8584V23.2013C134.472 23.757 134.657 24.3128 135.028 24.7759C135.815 25.4242 136.972 25.4242 137.759 24.7759C138.129 24.3591 138.314 23.8034 138.268 23.2013V21.8584C138.314 21.3026 138.129 20.7469 137.759 20.2838C137.388 19.9597 136.926 19.7744 136.416 19.7744ZM136.416 24.6369C136.092 24.6832 135.722 24.5443 135.491 24.3128C135.259 23.9886 135.167 23.6181 135.167 23.2476V21.8584C135.12 21.4416 135.259 21.0711 135.491 20.7006C135.722 20.4691 136.092 20.3301 136.416 20.3301C137.25 20.3301 137.62 20.7932 137.62 21.812V23.2013C137.62 24.1738 137.203 24.6369 136.416 24.6369Z" fill="#585857"/>
<path d="M140.953 22.9696H142.203V23.3401C142.249 23.7106 142.11 24.0811 141.925 24.3589C141.693 24.5905 141.369 24.6831 141.045 24.6831C140.212 24.6831 139.795 24.22 139.795 23.2475V21.8582C139.749 21.4414 139.888 21.0246 140.119 20.7004C140.351 20.4689 140.721 20.33 141.045 20.33C141.369 20.33 141.647 20.4226 141.925 20.6078C142.156 20.7931 142.249 21.0709 142.249 21.3488V21.4414H142.897V21.3488C142.897 21.0246 142.804 20.7468 142.665 20.5152C142.527 20.2837 142.295 20.0521 142.017 19.9595C141.693 19.8206 141.369 19.7279 141.045 19.7743C140.536 19.7279 140.027 19.9132 139.657 20.2837C139.286 20.7004 139.101 21.2562 139.147 21.8582V23.2475C139.101 23.8032 139.286 24.3589 139.657 24.822C140.027 25.1462 140.536 25.3314 141.045 25.3314C141.554 25.3777 142.017 25.1925 142.388 24.8683C142.758 24.4515 142.943 23.8958 142.897 23.3401V22.5065H140.999L140.953 22.9696Z" fill="#585857"/>
<path d="M145.165 18.3848H144.425L143.591 19.4499H144.193L145.165 18.3848Z" fill="#585857"/>
<path d="M144.563 19.8667H143.915V25.1923H144.563V19.8667Z" fill="#585857"/>
<path d="M147.063 19.8667L145.119 25.1923H145.813L146.276 23.942H148.452L148.914 25.1923H149.609L147.665 19.8667H147.063ZM148.22 23.3862H146.461L147.341 20.8392L148.22 23.3862Z" fill="#585857"/>
<path d="M153.034 22.3211L151.831 19.8667H151.784H151.09L152.71 22.9694V25.1923H153.358V22.9694L154.932 19.8667H154.238L153.034 22.3211Z" fill="#585857"/>
<path d="M158.404 19.8667L156.46 25.1923H157.154L157.617 23.942H159.793L160.255 25.1923H160.95L159.006 19.8667H158.404ZM159.607 23.3862H157.802L158.682 20.8392L159.607 23.3862Z" fill="#585857"/>
<path d="M164.746 22.321C164.977 22.0432 165.07 21.719 165.07 21.3485C165.116 20.9317 164.931 20.515 164.653 20.2371C164.329 19.9592 163.912 19.8203 163.449 19.8203H161.459V25.1459H162.107V22.8304H163.311L164.514 25.1459H165.255L164.005 22.7841C164.236 22.7378 164.514 22.5989 164.746 22.321ZM162.061 20.4223H163.357C163.635 20.4223 163.912 20.4686 164.144 20.6539C164.468 21.0707 164.468 21.6264 164.144 22.0432C163.912 22.2284 163.635 22.321 163.403 22.2747H162.107V20.4223H162.061Z" fill="#585857"/>
<path d="M165.394 20.4224H166.875V25.1923H167.523V20.4224H169.004V19.8667H165.394V20.4224Z" fill="#585857"/>
<path d="M169.56 25.1923H172.846V24.5903H170.208V22.7842H172.476V22.1822H170.208V20.4224H172.846V19.8667H169.56V25.1923Z" fill="#585857"/>
<path d="M177.151 19.8669H175.3V25.1925H177.151C177.661 25.2388 178.123 25.0536 178.494 24.6831C178.864 24.2663 179.049 23.7106 179.003 23.1549V21.9045C179.049 21.3488 178.864 20.7931 178.494 20.33C178.17 20.0058 177.661 19.8206 177.151 19.8669ZM177.151 24.5905H175.948V20.4226H177.151C177.475 20.4226 177.799 20.5152 178.031 20.7931C178.262 21.1173 178.355 21.5341 178.355 21.9508V23.1549C178.355 24.1274 177.985 24.5905 177.151 24.5905Z" fill="#585857"/>
<path d="M180.716 19.8667H180.068V25.1923H180.716V19.8667Z" fill="#585857"/>
<path d="M183.586 22.9696H184.835V23.3401C184.882 23.7106 184.743 24.0811 184.511 24.3589C184.28 24.5905 183.956 24.6831 183.632 24.6831C182.799 24.6831 182.382 24.22 182.382 23.2475V21.8582C182.336 21.4414 182.475 21.0246 182.706 20.7004C182.938 20.4689 183.308 20.33 183.632 20.33C183.956 20.33 184.234 20.4226 184.511 20.6078C184.743 20.7931 184.835 21.0709 184.835 21.3488V21.4414H185.484V21.3488C185.484 21.0246 185.391 20.7468 185.252 20.5152C185.113 20.2837 184.882 20.0521 184.604 19.9595C184.28 19.8206 183.956 19.7279 183.632 19.7743C183.123 19.7279 182.614 19.9132 182.243 20.2837C181.873 20.7004 181.688 21.2562 181.734 21.8582V23.2475C181.688 23.8032 181.873 24.3589 182.243 24.822C182.614 25.1462 183.123 25.3314 183.632 25.3314C184.141 25.3777 184.604 25.1925 184.974 24.8683C185.345 24.4515 185.53 23.8958 185.484 23.3401V22.5065H183.586V22.9696Z" fill="#585857"/>
<path d="M187.196 19.8667H186.548V25.1923H187.196V19.8667Z" fill="#585857"/>
<path d="M191.408 19.8667H187.798V20.4224H189.279V25.1923H189.927V20.4224H191.408V19.8667Z" fill="#585857"/>
<path d="M192.751 19.8667L190.807 25.1923H191.501L191.964 23.942H194.14L194.603 25.1923H195.297L193.353 19.8667H192.751ZM193.908 23.3862H192.103L192.982 20.8392L193.908 23.3862Z" fill="#585857"/>
<path d="M196.362 24.5903V19.8667H195.714V25.1923H199V24.5903H196.362Z" fill="#585857"/>
</g>
<defs>
<clipPath id="clip0_2456_1060">
<rect width="199" height="32" fill="white"/>
</clipPath>
</defs>
</svg>